<?xml version="1.0" encoding="UTF-8"?>
<svg width="25px" height="25px" viewBox="0 0 25 25" version="1.1" xmlns="http://www.w3.org/2000/svg" xmlns:xlink="http://www.w3.org/1999/xlink">
    <!-- Generator: Sketch 47 (45396) - http://www.bohemiancoding.com/sketch -->
    <title>单元格换行</title>
    <desc>Created with Sketch.</desc>
    <defs>
        <rect id="path-1" x="129" y="106" width="350" height="986" rx="2"></rect>
        <filter x="-2.0%" y="-0.5%" width="104.0%" height="101.4%" filterUnits="objectBoundingBox" id="filter-3">
            <feMorphology radius="0.5" operator="dilate" in="SourceAlpha" result="shadowSpreadOuter1"></feMorphology>
            <feOffset dx="0" dy="2" in="shadowSpreadOuter1" result="shadowOffsetOuter1"></feOffset>
            <feGaussianBlur stdDeviation="1.5" in="shadowOffsetOuter1" result="shadowBlurOuter1"></feGaussianBlur>
            <feColorMatrix values="0 0 0 0 0   0 0 0 0 0   0 0 0 0 0  0 0 0 0.2 0" type="matrix" in="shadowBlurOuter1"></feColorMatrix>
        </filter>
    </defs>
    <g id="Page-1" stroke="none" stroke-width="1" fill="none" fill-rule="evenodd">
        <g id="Artboard-6-Copy" transform="translate(-159.000000, -690.000000)">
            <mask id="mask-2" fill="white">
                <use xlink:href="#path-1"></use>
            </mask>
            <g id="Mask-Copy">
                <use fill="black" fill-opacity="1" filter="url(#filter-3)" xlink:href="#path-1"></use>
                <use fill="#FFFFFF" fill-rule="evenodd" xlink:href="#path-1"></use>
            </g>
            <g id="单元格换行" mask="url(#mask-2)">
                <g transform="translate(159.000000, 690.000000)">
                    <g id="外边框-copy-4"></g>
                    <g id="Group-7" transform="translate(6.000000, 7.000000)">
                        <rect id="Combined-Shape" fill="#555555" x="1.77635684e-15" y="0" width="1" height="11"></rect>
                        <rect id="Combined-Shape-Copy-3" fill="#555555" x="12" y="0" width="1" height="11"></rect>
                        <path d="M4.99989194,8 L4.99997541,6 L2,8.5000729 L4.99976674,11.0000729 L4.99985021,9 L7,9 L7,8 L4.99989194,8 Z M2,1 L7,1 L7,2 L2,2 L2,1 Z M7,1 C9.209139,1 11,2.790861 11,5 C11,7.209139 9.209139,9 7,9 L7,8 C8.65685425,8 10,6.65685425 10,5 C10,3.34314575 8.65685425,2 7,2 L7,1 Z" id="Combined-Shape" fill="#555555"></path>
                    </g>
                </g>
            </g>
        </g>
    </g>
</svg>