<?xml version="1.0" encoding="UTF-8"?>
<svg width="25px" height="25px" viewBox="0 0 25 25" version="1.1" xmlns="http://www.w3.org/2000/svg" xmlns:xlink="http://www.w3.org/1999/xlink">
    <!-- Generator: Sketch 47 (45396) - http://www.bohemiancoding.com/sketch -->
    <title>定位上下</title>
    <desc>Created with Sketch.</desc>
    <defs>
        <rect id="path-1" x="129" y="106" width="350" height="986" rx="2"></rect>
        <filter x="-2.0%" y="-0.5%" width="104.0%" height="101.4%" filterUnits="objectBoundingBox" id="filter-3">
            <feMorphology radius="0.5" operator="dilate" in="SourceAlpha" result="shadowSpreadOuter1"></feMorphology>
            <feOffset dx="0" dy="2" in="shadowSpreadOuter1" result="shadowOffsetOuter1"></feOffset>
            <feGaussianBlur stdDeviation="1.5" in="shadowOffsetOuter1" result="shadowBlurOuter1"></feGaussianBlur>
            <feColorMatrix values="0 0 0 0 0   0 0 0 0 0   0 0 0 0 0  0 0 0 0.2 0" type="matrix" in="shadowBlurOuter1"></feColorMatrix>
        </filter>
    </defs>
    <g id="Page-1" stroke="none" stroke-width="1" fill="none" fill-rule="evenodd">
        <g id="Artboard-6-Copy" transform="translate(-159.000000, -887.000000)">
            <mask id="mask-2" fill="white">
                <use xlink:href="#path-1"></use>
            </mask>
            <g id="Mask-Copy">
                <use fill="black" fill-opacity="1" filter="url(#filter-3)" xlink:href="#path-1"></use>
                <use fill="#FFFFFF" fill-rule="evenodd" xlink:href="#path-1"></use>
            </g>
            <g id="定位上下" mask="url(#mask-2)">
                <g transform="translate(159.000000, 887.000000)" id="Group-10">
                    <g transform="translate(7.000000, 7.000000)">
                        <path d="M0,0 L11,0 L11,11 L0,11 L0,0 Z M1,1 L1,10 L10,10 L10,1 L1,1 Z" id="Combined-Shape" fill="#D8D8D8" transform="translate(5.500000, 5.500000) rotate(90.000000) translate(-5.500000, -5.500000) "></path>
                        <rect id="Rectangle-12" fill="#D8D8D8" x="0" y="5" width="11" height="1"></rect>
                        <rect id="Rectangle-11" fill="#555555" x="0" y="0" width="11" height="1"></rect>
                        <rect id="Rectangle-11-Copy" fill="#555555" x="0" y="10" width="11" height="1"></rect>
                        <path d="M5.12132034,3.62132034 L5.12132034,1.62132034 L4.12132034,1.62132034 L4.12132034,4.12132034 L4.12132034,4.62132034 L7.12132034,4.62132034 L7.12132034,3.62132034 L5.12132034,3.62132034 Z" id="Combined-Shape" fill="#555555" transform="translate(5.621320, 3.121320) rotate(135.000000) translate(-5.621320, -3.121320) "></path>
                        <path d="M5.12132034,8.62132034 L5.12132034,6.62132034 L4.12132034,6.62132034 L4.12132034,9.12132034 L4.12132034,9.62132034 L7.12132034,9.62132034 L7.12132034,8.62132034 L5.12132034,8.62132034 Z" id="Combined-Shape" fill="#555555" transform="translate(5.621320, 8.121320) scale(1, -1) rotate(135.000000) translate(-5.621320, -8.121320) "></path>
                    </g>
                </g>
            </g>
        </g>
    </g>
</svg>