<?xml version="1.0" encoding="UTF-8"?>
<svg width="25px" height="25px" viewBox="0 0 25 25" version="1.1" xmlns="http://www.w3.org/2000/svg" xmlns:xlink="http://www.w3.org/1999/xlink">
    <!-- Generator: Sketch 47 (45396) - http://www.bohemiancoding.com/sketch -->
    <title>评论</title>
    <desc>Created with Sketch.</desc>
    <defs>
        <rect id="path-1" x="129" y="106" width="350" height="986" rx="2"></rect>
        <filter x="-2.0%" y="-0.5%" width="104.0%" height="101.4%" filterUnits="objectBoundingBox" id="filter-3">
            <feMorphology radius="0.5" operator="dilate" in="SourceAlpha" result="shadowSpreadOuter1"></feMorphology>
            <feOffset dx="0" dy="2" in="shadowSpreadOuter1" result="shadowOffsetOuter1"></feOffset>
            <feGaussianBlur stdDeviation="1.5" in="shadowOffsetOuter1" result="shadowBlurOuter1"></feGaussianBlur>
            <feColorMatrix values="0 0 0 0 0   0 0 0 0 0   0 0 0 0 0  0 0 0 0.2 0" type="matrix" in="shadowBlurOuter1"></feColorMatrix>
        </filter>
    </defs>
    <g id="Page-1" stroke="none" stroke-width="1" fill="none" fill-rule="evenodd">
        <g id="Artboard-6-Copy" transform="translate(-159.000000, -385.000000)">
            <mask id="mask-2" fill="white">
                <use xlink:href="#path-1"></use>
            </mask>
            <g id="Mask-Copy">
                <use fill="black" fill-opacity="1" filter="url(#filter-3)" xlink:href="#path-1"></use>
                <use fill="#FFFFFF" fill-rule="evenodd" xlink:href="#path-1"></use>
            </g>
            <g id="Group" mask="url(#mask-2)" fill="#555555">
                <g transform="translate(159.000000, 385.000000)" id="Combined-Shape">
                    <path d="M8.76383235,17.0965687 L6,17.0965687 L6,7 L19,7 L19,17.0965687 L11.6672636,17.0965687 L8.76383235,20 L8.76383235,17.0965687 Z M8.29467472,11.1304145 L8.29467472,12.9661543 L10.1304145,12.9661543 L10.1304145,11.1304145 L8.29467472,11.1304145 Z M11.5072193,11.1304145 L11.5072193,12.9661543 L13.3429591,12.9661543 L13.3429591,11.1304145 L11.5072193,11.1304145 Z M14.7197639,11.1304145 L14.7197639,12.9661543 L16.5555037,12.9661543 L16.5555037,11.1304145 L14.7197639,11.1304145 Z"></path>
                </g>
            </g>
        </g>
    </g>
</svg>