<?xml version="1.0" encoding="UTF-8"?>
<svg width="25px" height="25px" viewBox="0 0 25 25" version="1.1" xmlns="http://www.w3.org/2000/svg" xmlns:xlink="http://www.w3.org/1999/xlink">
    <!-- Generator: Sketch 47 (45396) - http://www.bohemiancoding.com/sketch -->
    <title>扩大范围</title>
    <desc>Created with Sketch.</desc>
    <defs>
        <rect id="path-1" x="129" y="106" width="350" height="986" rx="2"></rect>
        <filter x="-2.0%" y="-0.5%" width="104.0%" height="101.4%" filterUnits="objectBoundingBox" id="filter-3">
            <feMorphology radius="0.5" operator="dilate" in="SourceAlpha" result="shadowSpreadOuter1"></feMorphology>
            <feOffset dx="0" dy="2" in="shadowSpreadOuter1" result="shadowOffsetOuter1"></feOffset>
            <feGaussianBlur stdDeviation="1.5" in="shadowOffsetOuter1" result="shadowBlurOuter1"></feGaussianBlur>
            <feColorMatrix values="0 0 0 0 0   0 0 0 0 0   0 0 0 0 0  0 0 0 0.2 0" type="matrix" in="shadowBlurOuter1"></feColorMatrix>
        </filter>
    </defs>
    <g id="Page-1" stroke="none" stroke-width="1" fill="none" fill-rule="evenodd">
        <g id="Artboard-6-Copy" transform="translate(-159.000000, -851.000000)">
            <mask id="mask-2" fill="white">
                <use xlink:href="#path-1"></use>
            </mask>
            <g id="Mask-Copy">
                <use fill="black" fill-opacity="1" filter="url(#filter-3)" xlink:href="#path-1"></use>
                <use fill="#FFFFFF" fill-rule="evenodd" xlink:href="#path-1"></use>
            </g>
            <g id="扩大范围" mask="url(#mask-2)">
                <g transform="translate(159.000000, 851.000000)" id="Group-5">
                    <g transform="translate(7.000000, 7.000000)">
                        <rect id="Rectangle-29" fill="#D8D8D8" x="1" y="5" width="9" height="1"></rect>
                        <rect id="Rectangle-29-Copy" fill="#D8D8D8" transform="translate(5.500000, 5.500000) rotate(90.000000) translate(-5.500000, -5.500000) " x="1" y="5" width="9" height="1"></rect>
                        <path d="M0,0 L6,0 L6,6 L0,6 L0,0 Z M1,1 L1,5 L5,5 L5,1 L1,1 Z" id="Combined-Shape" fill="#555555"></path>
                        <path d="M10,7 L10,1 L1,1 L1,10 L7,10 L7,11 L11,11 L11,7 L10,7 Z M0,0 L11,0 L11,11 L0,11 L0,0 Z" id="Combined-Shape" fill="#555555"></path>
                        <path d="M9.85355339,9.14644661 L7.70710678,7 L7,7.70710678 L9.14644661,9.85355339 L8,11 L11,11 L11,8 L9.85355339,9.14644661 Z" id="Combined-Shape" fill="#555555"></path>
                    </g>
                </g>
            </g>
        </g>
    </g>
</svg>