<?xml version="1.0" encoding="UTF-8"?>
<svg width="25px" height="25px" viewBox="0 0 25 25" version="1.1" xmlns="http://www.w3.org/2000/svg" xmlns:xlink="http://www.w3.org/1999/xlink">
    <!-- Generator: Sketch 47 (45396) - http://www.bohemiancoding.com/sketch -->
    <title>查找</title>
    <desc>Created with Sketch.</desc>
    <defs>
        <rect id="path-1" x="129" y="106" width="350" height="986" rx="2"></rect>
        <filter x="-2.0%" y="-0.5%" width="104.0%" height="101.4%" filterUnits="objectBoundingBox" id="filter-3">
            <feMorphology radius="0.5" operator="dilate" in="SourceAlpha" result="shadowSpreadOuter1"></feMorphology>
            <feOffset dx="0" dy="2" in="shadowSpreadOuter1" result="shadowOffsetOuter1"></feOffset>
            <feGaussianBlur stdDeviation="1.5" in="shadowOffsetOuter1" result="shadowBlurOuter1"></feGaussianBlur>
            <feColorMatrix values="0 0 0 0 0   0 0 0 0 0   0 0 0 0 0  0 0 0 0.2 0" type="matrix" in="shadowBlurOuter1"></feColorMatrix>
        </filter>
    </defs>
    <g id="Page-1" stroke="none" stroke-width="1" fill="none" fill-rule="evenodd">
        <g id="Artboard-6-Copy" transform="translate(-159.000000, -582.000000)">
            <mask id="mask-2" fill="white">
                <use xlink:href="#path-1"></use>
            </mask>
            <g id="Mask-Copy">
                <use fill="black" fill-opacity="1" filter="url(#filter-3)" xlink:href="#path-1"></use>
                <use fill="#FFFFFF" fill-rule="evenodd" xlink:href="#path-1"></use>
            </g>
            <g id="查找" mask="url(#mask-2)">
                <g transform="translate(159.000000, 582.000000)" id="Group-Copy">
                    <g transform="translate(6.000000, 7.000000)">
                        <path d="M13.4344539,9.76037671 L14.6936591,11.0195819 L14.0070434,11.7061977 L12.7464902,10.4456445 C12.2548649,10.7978836 11.6523704,11.0052242 11.0014488,11.0052242 C9.34487164,11.0052242 8.00195048,9.66230308 8.00195048,8.00572588 C8.00195048,6.34914868 9.34487164,5.00622752 11.0014488,5.00622752 C12.658026,5.00622752 14.0009472,6.34914868 14.0009472,8.00572588 C14.0009472,8.66089469 13.7908919,9.26700246 13.4344539,9.76037671 Z M3,9.994518 L3,4 L1,4 L1,9.98906323 C1.66814344,9.99119236 2.33481012,9.99301061 3.00000002,9.994518 Z M4.00000002,9.99655193 C5.2761976,9.99885064 6.54693514,10 7.81221266,10 C7.98087416,10.3348389 8.27585707,10.6691437 8.6392437,11 C6.30690701,11 3.42715911,10.9963544 0,10.9890632 L0,0 L13,0 C13,1.63514691 13,3.22789245 13,4.77823662 C12.4961295,4.3903955 12.1226044,4.33908883 12,4.29200784 C12.0000209,4.19332916 12.0000403,4.09599321 12.0000581,4 L4,4 L4,9.99655192 Z M1,3 L12.0001925,3 C12.0002522,2.22459356 12.000188,1.55792689 12,1 L1,1 L1,3 Z M11.0000192,10.0000385 C12.1045994,10.0000385 13.0000385,9.10459935 13.0000385,8.00001923 C13.0000385,6.89543911 12.1045994,6 11.0000192,6 C9.89543911,6 9,6.89543911 9,8.00001923 C9,9.10459935 9.89543911,10.0000385 11.0000192,10.0000385 Z" id="Combined-Shape" fill="#555555" fill-rule="nonzero"></path>
                        <rect id="Rectangle-Copy" fill="#AAAAAA" transform="translate(1.987833, 6.996258) rotate(90.000000) translate(-1.987833, -6.996258) " x="-1.01216707" y="5.99625829" width="6" height="2"></rect>
                    </g>
                </g>
            </g>
        </g>
    </g>
</svg>