<?xml version="1.0" encoding="UTF-8"?>
<svg width="25px" height="25px" viewBox="0 0 25 25" version="1.1" xmlns="http://www.w3.org/2000/svg" xmlns:xlink="http://www.w3.org/1999/xlink">
    <!-- Generator: Sketch 47 (45396) - http://www.bohemiancoding.com/sketch -->
    <title>新增行</title>
    <desc>Created with Sketch.</desc>
    <defs>
        <rect id="path-1" x="129" y="106" width="350" height="986" rx="2"></rect>
        <filter x="-2.0%" y="-0.5%" width="104.0%" height="101.4%" filterUnits="objectBoundingBox" id="filter-3">
            <feMorphology radius="0.5" operator="dilate" in="SourceAlpha" result="shadowSpreadOuter1"></feMorphology>
            <feOffset dx="0" dy="2" in="shadowSpreadOuter1" result="shadowOffsetOuter1"></feOffset>
            <feGaussianBlur stdDeviation="1.5" in="shadowOffsetOuter1" result="shadowBlurOuter1"></feGaussianBlur>
            <feColorMatrix values="0 0 0 0 0   0 0 0 0 0   0 0 0 0 0  0 0 0 0.2 0" type="matrix" in="shadowBlurOuter1"></feColorMatrix>
        </filter>
    </defs>
    <g id="Page-1" stroke="none" stroke-width="1" fill="none" fill-rule="evenodd">
        <g id="Artboard-6-Copy" transform="translate(-159.000000, -654.000000)">
            <mask id="mask-2" fill="white">
                <use xlink:href="#path-1"></use>
            </mask>
            <g id="Mask-Copy">
                <use fill="black" fill-opacity="1" filter="url(#filter-3)" xlink:href="#path-1"></use>
                <use fill="#FFFFFF" fill-rule="evenodd" xlink:href="#path-1"></use>
            </g>
            <g id="新增行" mask="url(#mask-2)">
                <g transform="translate(159.000000, 654.000000)" id="Group-2">
                    <g transform="translate(6.000000, 7.000000)">
                        <path d="M2,9 L2,7.23174136 L-4.4408921e-16,9.47989895 L2,11.7280565 L2,10 L4,10 L4,9 L2,9 Z M2.42903479,7 L2.32163722,6.87019579 L2.20616114,7 L2.42903479,7 Z" id="Combined-Shape" fill="#555555"></path>
                        <path d="M0,0 L11,0 L11,4 L0,4 L0,0 Z M1,1 L1,3 L10,3 L10,1 L1,1 Z" id="Combined-Shape" fill="#555555"></path>
                        <path d="M0,3 L11,3 L11,7 L0,7 L0,3 Z M1,4 L1,6 L10,6 L10,4 L1,4 Z" id="Combined-Shape-Copy" fill="#555555"></path>
                        <path d="M5,8 L13,8 L13,11 L5,11 L5,8 Z M11.4,10 L5.8,10 L11.4,10 Z" id="Combined-Shape-Copy-2" fill="#555555"></path>
                    </g>
                </g>
            </g>
        </g>
    </g>
</svg>