<?xml version="1.0" encoding="UTF-8"?>
<svg width="25px" height="25px" viewBox="0 0 25 25" version="1.1" xmlns="http://www.w3.org/2000/svg" xmlns:xlink="http://www.w3.org/1999/xlink">
    <!-- Generator: Sketch 47 (45396) - http://www.bohemiancoding.com/sketch -->
    <title>下划线</title>
    <desc>Created with Sketch.</desc>
    <defs>
        <rect id="path-1" x="129" y="106" width="350" height="986" rx="2"></rect>
        <filter x="-2.0%" y="-0.5%" width="104.0%" height="101.4%" filterUnits="objectBoundingBox" id="filter-3">
            <feMorphology radius="0.5" operator="dilate" in="SourceAlpha" result="shadowSpreadOuter1"></feMorphology>
            <feOffset dx="0" dy="2" in="shadowSpreadOuter1" result="shadowOffsetOuter1"></feOffset>
            <feGaussianBlur stdDeviation="1.5" in="shadowOffsetOuter1" result="shadowBlurOuter1"></feGaussianBlur>
            <feColorMatrix values="0 0 0 0 0   0 0 0 0 0   0 0 0 0 0  0 0 0 0.2 0" type="matrix" in="shadowBlurOuter1"></feColorMatrix>
        </filter>
    </defs>
    <g id="Page-1" stroke="none" stroke-width="1" fill="none" fill-rule="evenodd">
        <g id="Artboard-6-Copy" transform="translate(-159.000000, -296.000000)">
            <mask id="mask-2" fill="white">
                <use xlink:href="#path-1"></use>
            </mask>
            <g id="Mask-Copy">
                <use fill="black" fill-opacity="1" filter="url(#filter-3)" xlink:href="#path-1"></use>
                <use fill="#FFFFFF" fill-rule="evenodd" xlink:href="#path-1"></use>
            </g>
            <g id="Group" mask="url(#mask-2)" fill="#555555">
                <g transform="translate(159.000000, 296.000000)" id="Combined-Shape">
                    <path d="M9.88085938,6 L9.88085938,12.0212202 C9.88085938,12.7285623 10.0175768,13.3165317 10.2910156,13.7851459 C10.6966166,14.4924881 11.3802035,14.8461538 12.3417969,14.8461538 C13.4947974,14.8461538 14.2786438,14.4637527 14.6933594,13.698939 C14.9166678,13.2833755 15.0283203,12.7241414 15.0283203,12.0212202 L15.0283203,6 L16.4091797,6 L16.4091797,11.4708223 C16.4091797,12.6688831 16.2428402,13.5906245 15.9101562,14.2360743 C15.2994761,15.4120306 14.1464929,16 12.4511719,16 C10.7558509,16 9.60514626,15.4120306 8.99902344,14.2360743 C8.66633948,13.5906245 8.5,12.6688831 8.5,11.4708223 L8.5,6 L9.88085938,6 Z M7,18 L18,18 L18,19 L7,19 L7,18 Z"></path>
                </g>
            </g>
        </g>
    </g>
</svg>